<svg xmlns="http://www.w3.org/2000/svg" version="1.1">
	<rect x="-18.75" y="-12.25" width="15.0" height="7.0" fill="none" style="stroke:rgb(0,0,0);stroke-width:0.2"/>
	<rect x="-20.75" y="-15.25" width="22.0" height="10.0" fill="none" style="stroke:rgb(0,0,0);stroke-width:0.2"/>
	<rect x="-15.083333" y="-10.583333" width="-0.53333336" height="-0.53333336"/>
	<rect x="-18.083334" y="-8.583333" width="-0.53333336" height="-0.53333336"/>
	<rect x="-8.083333" y="-10.583333" width="-0.53333336" height="-0.53333336"/>
	<rect x="-15.083333" y="-8.583333" width="-0.53333336" height="-0.53333336"/>
	<rect x="-11.083333" y="-10.583333" width="-0.53333336" height="-0.53333336"/>
	<rect x="-6.0833335" y="-10.583333" width="-0.53333336" height="-0.53333336"/>
	<rect x="-17.083334" y="-8.583333" width="-0.53333336" height="-0.53333336"/>
	<rect x="-10.083333" y="-10.583333" width="-0.53333336" height="-0.53333336"/>
	<rect x="-9.083333" y="-10.583333" width="-0.53333336" height="-0.53333336"/>
	<rect x="-17.083334" y="-10.583333" width="-0.53333336" height="-0.53333336"/>
	<rect x="-14.083333" y="-10.583333" width="-0.53333336" height="-0.53333336"/>
	<rect x="-12.083333" y="-10.583333" width="-0.53333336" height="-0.53333336"/>
	<rect x="-5.0833335" y="-10.583333" width="-0.53333336" height="-0.53333336"/>
	<rect x="-18.083334" y="-10.583333" width="-0.53333336" height="-0.53333336"/>
	<rect x="-16.083334" y="-10.583333" width="-0.53333336" height="-0.53333336"/>
	<rect x="-13.083333" y="-10.583333" width="-0.53333336" height="-0.53333336"/>
	<rect x="-7.0833335" y="-10.583333" width="-0.53333336" height="-0.53333336"/>
	<rect x="-4.0833335" y="-10.583333" width="-0.53333336" height="-0.53333336"/>
	<text x="-3.25" y="-13.25" font-size=".9">Document</text>
	<text x="-18.25" y="-12.75" transform="rotate(-90 -18.25,-12.75)" font-size=".6">AML-2013</text>
	<text x="-17.25" y="-12.75" transform="rotate(-90 -17.25,-12.75)" font-size=".6">AML-2014</text>
	<text x="-16.25" y="-12.75" transform="rotate(-90 -16.25,-12.75)" font-size=".6">LogMap-2012</text>
	<text x="-15.25" y="-12.75" transform="rotate(-90 -15.25,-12.75)" font-size=".6">AML-2015</text>
	<text x="-14.25" y="-12.75" transform="rotate(-90 -14.25,-12.75)" font-size=".6">LogMap-2011</text>
	<text x="-13.25" y="-12.75" transform="rotate(-90 -13.25,-12.75)" font-size=".6">LogMapLite-2014</text>
	<text x="-12.25" y="-12.75" transform="rotate(-90 -12.25,-12.75)" font-size=".6">LogMap-2015</text>
	<text x="-11.25" y="-12.75" transform="rotate(-90 -11.25,-12.75)" font-size=".6">LogMap-2013</text>
	<text x="-10.25" y="-12.75" transform="rotate(-90 -10.25,-12.75)" font-size=".6">LogMapC-2014</text>
	<text x="-9.25" y="-12.75" transform="rotate(-90 -9.25,-12.75)" font-size=".6">LogMapLite-2015</text>
	<text x="-8.25" y="-12.75" transform="rotate(-90 -8.25,-12.75)" font-size=".6">LogMap-2014</text>
	<text x="-7.25" y="-12.75" transform="rotate(-90 -7.25,-12.75)" font-size=".6">LogMapLite-2013</text>
	<text x="-6.25" y="-12.75" transform="rotate(-90 -6.25,-12.75)" font-size=".6">OAEI-RA-2016</text>
	<text x="-5.25" y="-12.75" transform="rotate(-90 -5.25,-12.75)" font-size=".6">LogMapLite-2012</text>
	<text x="-4.25" y="-12.75" transform="rotate(-90 -4.25,-12.75)" font-size=".6">LogMapC-2015</text>
	<text x="-3.25" y="-11.75" font-size=".6">City</text>
	<text x="-3.25" y="-10.75" font-size=".6">Contribution</text>
	<text x="-3.25" y="-9.75" font-size=".6">Country</text>
	<text x="-3.25" y="-8.75" font-size=".6">Event</text>
	<text x="-3.25" y="-7.75" font-size=".6">Organization</text>
	<text x="-3.25" y="-6.75" font-size=".6">Person</text>
	<text x="-3.25" y="-5.75" font-size=".6">Topic</text>
	<circle cx="-19.75" cy="-11.25" r="0.5" fill-opacity="0.0" style="stroke:rgb(0,0,0);stroke-width:0.1"/>	<circle cx="-19.75" cy="-6.25" r="0.5" fill-opacity="0.0" style="stroke:rgb(0,0,0);stroke-width:0.1"/>	<rect x="6.45" y="-12.25" width="15.0" height="7.0" fill="none" style="stroke:rgb(0,0,0);stroke-width:0.2"/>
	<rect x="4.45" y="-15.25" width="22.0" height="10.0" fill="none" style="stroke:rgb(0,0,0);stroke-width:0.2"/>
	<rect x="17.45" y="-9.25" width="0.8" height="0.8"/>
	<rect x="7.4632664" y="-9.236733" width="0.77346665" height="0.77346665"/>
	<rect x="13.57" y="-9.13" width="0.56" height="0.56"/>
	<rect x="15.45" y="-9.25" width="0.8" height="0.8"/>
	<rect x="18.45" y="-9.25" width="0.8" height="0.8"/>
	<rect x="6.4632664" y="-9.236733" width="0.77346665" height="0.77346665"/>
	<rect x="9.463266" y="-9.236733" width="0.77346665" height="0.77346665"/>
	<rect x="20.570002" y="-9.13" width="0.56" height="0.56"/>
	<rect x="11.116667" y="-8.583333" width="-0.53333336" height="-0.53333336"/>
	<rect x="12.57" y="-9.13" width="0.56" height="0.56"/>
	<rect x="14.57" y="-9.13" width="0.56" height="0.56"/>
	<rect x="11.45" y="-9.25" width="0.8" height="0.8"/>
	<rect x="8.59" y="-9.11" width="0.52000004" height="0.52000004"/>
	<rect x="19.45" y="-9.25" width="0.8" height="0.8"/>
	<rect x="16.570002" y="-9.13" width="0.56" height="0.56"/>
	<text x="21.95" y="-13.25" font-size=".9">Event</text>
	<text x="6.95" y="-12.75" transform="rotate(-90 6.95,-12.75)" font-size=".6">AML-2013</text>
	<text x="7.95" y="-12.75" transform="rotate(-90 7.95,-12.75)" font-size=".6">AML-2014</text>
	<text x="8.95" y="-12.75" transform="rotate(-90 8.95,-12.75)" font-size=".6">LogMap-2012</text>
	<text x="9.95" y="-12.75" transform="rotate(-90 9.95,-12.75)" font-size=".6">AML-2015</text>
	<text x="10.95" y="-12.75" transform="rotate(-90 10.95,-12.75)" font-size=".6">LogMap-2011</text>
	<text x="11.95" y="-12.75" transform="rotate(-90 11.95,-12.75)" font-size=".6">LogMapLite-2014</text>
	<text x="12.95" y="-12.75" transform="rotate(-90 12.95,-12.75)" font-size=".6">LogMap-2015</text>
	<text x="13.95" y="-12.75" transform="rotate(-90 13.95,-12.75)" font-size=".6">LogMap-2013</text>
	<text x="14.95" y="-12.75" transform="rotate(-90 14.95,-12.75)" font-size=".6">LogMapC-2014</text>
	<text x="15.95" y="-12.75" transform="rotate(-90 15.95,-12.75)" font-size=".6">LogMapLite-2015</text>
	<text x="16.95" y="-12.75" transform="rotate(-90 16.95,-12.75)" font-size=".6">LogMap-2014</text>
	<text x="17.95" y="-12.75" transform="rotate(-90 17.95,-12.75)" font-size=".6">LogMapLite-2013</text>
	<text x="18.95" y="-12.75" transform="rotate(-90 18.95,-12.75)" font-size=".6">OAEI-RA-2016</text>
	<text x="19.95" y="-12.75" transform="rotate(-90 19.95,-12.75)" font-size=".6">LogMapLite-2012</text>
	<text x="20.95" y="-12.75" transform="rotate(-90 20.95,-12.75)" font-size=".6">LogMapC-2015</text>
	<text x="21.95" y="-11.75" font-size=".6">City</text>
	<text x="21.95" y="-10.75" font-size=".6">Contribution</text>
	<text x="21.95" y="-9.75" font-size=".6">Country</text>
	<text x="21.95" y="-8.75" font-size=".6">Event</text>
	<text x="21.95" y="-7.75" font-size=".6">Organization</text>
	<text x="21.95" y="-6.75" font-size=".6">Person</text>
	<text x="21.95" y="-5.75" font-size=".6">Topic</text>
	<circle cx="5.45" cy="-11.25" r="0.5" fill-opacity="0.0" style="stroke:rgb(0,0,0);stroke-width:0.1"/>	<circle cx="5.45" cy="-6.25" r="0.5" fill-opacity="0.0" style="stroke:rgb(0,0,0);stroke-width:0.1"/>	<rect x="31.65" y="-12.25" width="15.0" height="7.0" fill="none" style="stroke:rgb(0,0,0);stroke-width:0.2"/>
	<rect x="29.65" y="-15.25" width="22.0" height="10.0" fill="none" style="stroke:rgb(0,0,0);stroke-width:0.2"/>
	<text x="47.15" y="-13.25" font-size=".9">Location</text>
	<text x="32.15" y="-12.75" transform="rotate(-90 32.15,-12.75)" font-size=".6">AML-2013</text>
	<text x="33.15" y="-12.75" transform="rotate(-90 33.15,-12.75)" font-size=".6">AML-2014</text>
	<text x="34.15" y="-12.75" transform="rotate(-90 34.15,-12.75)" font-size=".6">LogMap-2012</text>
	<text x="35.15" y="-12.75" transform="rotate(-90 35.15,-12.75)" font-size=".6">AML-2015</text>
	<text x="36.15" y="-12.75" transform="rotate(-90 36.15,-12.75)" font-size=".6">LogMap-2011</text>
	<text x="37.15" y="-12.75" transform="rotate(-90 37.15,-12.75)" font-size=".6">LogMapLite-2014</text>
	<text x="38.15" y="-12.75" transform="rotate(-90 38.15,-12.75)" font-size=".6">LogMap-2015</text>
	<text x="39.15" y="-12.75" transform="rotate(-90 39.15,-12.75)" font-size=".6">LogMap-2013</text>
	<text x="40.15" y="-12.75" transform="rotate(-90 40.15,-12.75)" font-size=".6">LogMapC-2014</text>
	<text x="41.15" y="-12.75" transform="rotate(-90 41.15,-12.75)" font-size=".6">LogMapLite-2015</text>
	<text x="42.15" y="-12.75" transform="rotate(-90 42.15,-12.75)" font-size=".6">LogMap-2014</text>
	<text x="43.15" y="-12.75" transform="rotate(-90 43.15,-12.75)" font-size=".6">LogMapLite-2013</text>
	<text x="44.15" y="-12.75" transform="rotate(-90 44.15,-12.75)" font-size=".6">OAEI-RA-2016</text>
	<text x="45.15" y="-12.75" transform="rotate(-90 45.15,-12.75)" font-size=".6">LogMapLite-2012</text>
	<text x="46.15" y="-12.75" transform="rotate(-90 46.15,-12.75)" font-size=".6">LogMapC-2015</text>
	<text x="47.15" y="-11.75" font-size=".6">City</text>
	<text x="47.15" y="-10.75" font-size=".6">Contribution</text>
	<text x="47.15" y="-9.75" font-size=".6">Country</text>
	<text x="47.15" y="-8.75" font-size=".6">Event</text>
	<text x="47.15" y="-7.75" font-size=".6">Organization</text>
	<text x="47.15" y="-6.75" font-size=".6">Person</text>
	<text x="47.15" y="-5.75" font-size=".6">Topic</text>
	<circle cx="30.65" cy="-11.25" r="0.5" fill-opacity="0.0" style="stroke:rgb(0,0,0);stroke-width:0.1"/>	<circle cx="30.65" cy="-6.25" r="0.5" fill-opacity="0.0" style="stroke:rgb(0,0,0);stroke-width:0.1"/>	<rect x="56.85" y="-12.25" width="15.0" height="7.0" fill="none" style="stroke:rgb(0,0,0);stroke-width:0.2"/>
	<rect x="54.85" y="-15.25" width="22.0" height="10.0" fill="none" style="stroke:rgb(0,0,0);stroke-width:0.2"/>
	<rect x="68.85" y="-8.25" width="0.8" height="0.8"/>
	<rect x="63.936665" y="-8.163333" width="0.6266667" height="0.6266667"/>
	<rect x="57.516666" y="-7.5833335" width="-0.53333336" height="-0.53333336"/>
	<rect x="62.516666" y="-7.5833335" width="-0.53333336" height="-0.53333336"/>
	<rect x="66.51666" y="-7.5833335" width="-0.53333336" height="-0.53333336"/>
	<rect x="60.061264" y="-8.0387335" width="0.37746665" height="0.37746665"/>
	<rect x="70.99" y="-8.11" width="0.52000004" height="0.52000004"/>
	<rect x="58.061264" y="-8.0387335" width="0.37746665" height="0.37746665"/>
	<rect x="58.976665" y="-8.123333" width="0.5466667" height="0.5466667"/>
	<rect x="61.087997" y="-8.012" width="0.324" height="0.324"/>
	<rect x="64.93667" y="-8.163333" width="0.6266667" height="0.6266667"/>
	<rect x="62.989998" y="-8.11" width="0.52000004" height="0.52000004"/>
	<rect x="66.93667" y="-8.163333" width="0.6266667" height="0.6266667"/>
	<rect x="68.51666" y="-7.5833335" width="-0.53333336" height="-0.53333336"/>
	<rect x="70.51666" y="-7.5833335" width="-0.53333336" height="-0.53333336"/>
	<text x="72.35" y="-13.25" font-size=".9">Organisation</text>
	<text x="57.35" y="-12.75" transform="rotate(-90 57.35,-12.75)" font-size=".6">AML-2013</text>
	<text x="58.35" y="-12.75" transform="rotate(-90 58.35,-12.75)" font-size=".6">AML-2014</text>
	<text x="59.35" y="-12.75" transform="rotate(-90 59.35,-12.75)" font-size=".6">LogMap-2012</text>
	<text x="60.35" y="-12.75" transform="rotate(-90 60.35,-12.75)" font-size=".6">AML-2015</text>
	<text x="61.35" y="-12.75" transform="rotate(-90 61.35,-12.75)" font-size=".6">LogMap-2011</text>
	<text x="62.35" y="-12.75" transform="rotate(-90 62.35,-12.75)" font-size=".6">LogMapLite-2014</text>
	<text x="63.35" y="-12.75" transform="rotate(-90 63.35,-12.75)" font-size=".6">LogMap-2015</text>
	<text x="64.35" y="-12.75" transform="rotate(-90 64.35,-12.75)" font-size=".6">LogMap-2013</text>
	<text x="65.35" y="-12.75" transform="rotate(-90 65.35,-12.75)" font-size=".6">LogMapC-2014</text>
	<text x="66.35" y="-12.75" transform="rotate(-90 66.35,-12.75)" font-size=".6">LogMapLite-2015</text>
	<text x="67.35" y="-12.75" transform="rotate(-90 67.35,-12.75)" font-size=".6">LogMap-2014</text>
	<text x="68.35" y="-12.75" transform="rotate(-90 68.35,-12.75)" font-size=".6">LogMapLite-2013</text>
	<text x="69.35" y="-12.75" transform="rotate(-90 69.35,-12.75)" font-size=".6">OAEI-RA-2016</text>
	<text x="70.35" y="-12.75" transform="rotate(-90 70.35,-12.75)" font-size=".6">LogMapLite-2012</text>
	<text x="71.35" y="-12.75" transform="rotate(-90 71.35,-12.75)" font-size=".6">LogMapC-2015</text>
	<text x="72.35" y="-11.75" font-size=".6">City</text>
	<text x="72.35" y="-10.75" font-size=".6">Contribution</text>
	<text x="72.35" y="-9.75" font-size=".6">Country</text>
	<text x="72.35" y="-8.75" font-size=".6">Event</text>
	<text x="72.35" y="-7.75" font-size=".6">Organization</text>
	<text x="72.35" y="-6.75" font-size=".6">Person</text>
	<text x="72.35" y="-5.75" font-size=".6">Topic</text>
	<circle cx="55.85" cy="-11.25" r="0.5" fill-opacity="0.0" style="stroke:rgb(0,0,0);stroke-width:0.1"/>	<circle cx="55.85" cy="-6.25" r="0.5" fill-opacity="0.0" style="stroke:rgb(0,0,0);stroke-width:0.1"/>	<rect x="82.05" y="-12.25" width="15.0" height="7.0" fill="none" style="stroke:rgb(0,0,0);stroke-width:0.2"/>
	<rect x="80.05" y="-15.25" width="22.0" height="10.0" fill="none" style="stroke:rgb(0,0,0);stroke-width:0.2"/>
	<rect x="87.05" y="-7.25" width="0.8" height="0.8"/>
	<rect x="83.06327" y="-7.2367334" width="0.77346665" height="0.77346665"/>
	<rect x="92.17667" y="-7.1233335" width="0.5466667" height="0.5466667"/>
	<rect x="94.05" y="-7.25" width="0.8" height="0.8"/>
	<rect x="85.06327" y="-7.2367334" width="0.77346665" height="0.77346665"/>
	<rect x="93.05" y="-7.25" width="0.8" height="0.8"/>
	<rect x="90.17667" y="-7.1233335" width="0.5466667" height="0.5466667"/>
	<rect x="88.15" y="-7.15" width="0.6000001" height="0.6000001"/>
	<rect x="89.17667" y="-7.1233335" width="0.5466667" height="0.5466667"/>
	<rect x="82.05" y="-7.25" width="0.8" height="0.8"/>
	<rect x="95.05" y="-7.25" width="0.8" height="0.8"/>
	<rect x="91.05" y="-7.25" width="0.8" height="0.8"/>
	<rect x="96.15" y="-7.15" width="0.6000001" height="0.6000001"/>
	<rect x="86.29733" y="-7.0026665" width="0.30533335" height="0.30533335"/>
	<rect x="84.21667" y="-7.0833335" width="0.46666667" height="0.46666667"/>
	<text x="97.55" y="-13.25" font-size=".9">Person</text>
	<text x="82.55" y="-12.75" transform="rotate(-90 82.55,-12.75)" font-size=".6">AML-2013</text>
	<text x="83.55" y="-12.75" transform="rotate(-90 83.55,-12.75)" font-size=".6">AML-2014</text>
	<text x="84.55" y="-12.75" transform="rotate(-90 84.55,-12.75)" font-size=".6">LogMap-2012</text>
	<text x="85.55" y="-12.75" transform="rotate(-90 85.55,-12.75)" font-size=".6">AML-2015</text>
	<text x="86.55" y="-12.75" transform="rotate(-90 86.55,-12.75)" font-size=".6">LogMap-2011</text>
	<text x="87.55" y="-12.75" transform="rotate(-90 87.55,-12.75)" font-size=".6">LogMapLite-2014</text>
	<text x="88.55" y="-12.75" transform="rotate(-90 88.55,-12.75)" font-size=".6">LogMap-2015</text>
	<text x="89.55" y="-12.75" transform="rotate(-90 89.55,-12.75)" font-size=".6">LogMap-2013</text>
	<text x="90.55" y="-12.75" transform="rotate(-90 90.55,-12.75)" font-size=".6">LogMapC-2014</text>
	<text x="91.55" y="-12.75" transform="rotate(-90 91.55,-12.75)" font-size=".6">LogMapLite-2015</text>
	<text x="92.55" y="-12.75" transform="rotate(-90 92.55,-12.75)" font-size=".6">LogMap-2014</text>
	<text x="93.55" y="-12.75" transform="rotate(-90 93.55,-12.75)" font-size=".6">LogMapLite-2013</text>
	<text x="94.55" y="-12.75" transform="rotate(-90 94.55,-12.75)" font-size=".6">OAEI-RA-2016</text>
	<text x="95.55" y="-12.75" transform="rotate(-90 95.55,-12.75)" font-size=".6">LogMapLite-2012</text>
	<text x="96.55" y="-12.75" transform="rotate(-90 96.55,-12.75)" font-size=".6">LogMapC-2015</text>
	<text x="97.55" y="-11.75" font-size=".6">City</text>
	<text x="97.55" y="-10.75" font-size=".6">Contribution</text>
	<text x="97.55" y="-9.75" font-size=".6">Country</text>
	<text x="97.55" y="-8.75" font-size=".6">Event</text>
	<text x="97.55" y="-7.75" font-size=".6">Organization</text>
	<text x="97.55" y="-6.75" font-size=".6">Person</text>
	<text x="97.55" y="-5.75" font-size=".6">Topic</text>
	<circle cx="81.05" cy="-11.25" r="0.5" fill-opacity="0.0" style="stroke:rgb(0,0,0);stroke-width:0.1"/>	<circle cx="81.05" cy="-6.25" r="0.5" fill-opacity="0.0" style="stroke:rgb(0,0,0);stroke-width:0.1"/>	<rect x="107.25" y="-12.25" width="15.0" height="7.0" fill="none" style="stroke:rgb(0,0,0);stroke-width:0.2"/>
	<rect x="105.25" y="-15.25" width="22.0" height="10.0" fill="none" style="stroke:rgb(0,0,0);stroke-width:0.2"/>
	<rect x="119.25" y="-6.25" width="0.8" height="0.8"/>
	<text x="122.75" y="-13.25" font-size=".9">Research_Topic</text>
	<text x="107.75" y="-12.75" transform="rotate(-90 107.75,-12.75)" font-size=".6">AML-2013</text>
	<text x="108.75" y="-12.75" transform="rotate(-90 108.75,-12.75)" font-size=".6">AML-2014</text>
	<text x="109.75" y="-12.75" transform="rotate(-90 109.75,-12.75)" font-size=".6">LogMap-2012</text>
	<text x="110.75" y="-12.75" transform="rotate(-90 110.75,-12.75)" font-size=".6">AML-2015</text>
	<text x="111.75" y="-12.75" transform="rotate(-90 111.75,-12.75)" font-size=".6">LogMap-2011</text>
	<text x="112.75" y="-12.75" transform="rotate(-90 112.75,-12.75)" font-size=".6">LogMapLite-2014</text>
	<text x="113.75" y="-12.75" transform="rotate(-90 113.75,-12.75)" font-size=".6">LogMap-2015</text>
	<text x="114.75" y="-12.75" transform="rotate(-90 114.75,-12.75)" font-size=".6">LogMap-2013</text>
	<text x="115.75" y="-12.75" transform="rotate(-90 115.75,-12.75)" font-size=".6">LogMapC-2014</text>
	<text x="116.75" y="-12.75" transform="rotate(-90 116.75,-12.75)" font-size=".6">LogMapLite-2015</text>
	<text x="117.75" y="-12.75" transform="rotate(-90 117.75,-12.75)" font-size=".6">LogMap-2014</text>
	<text x="118.75" y="-12.75" transform="rotate(-90 118.75,-12.75)" font-size=".6">LogMapLite-2013</text>
	<text x="119.75" y="-12.75" transform="rotate(-90 119.75,-12.75)" font-size=".6">OAEI-RA-2016</text>
	<text x="120.75" y="-12.75" transform="rotate(-90 120.75,-12.75)" font-size=".6">LogMapLite-2012</text>
	<text x="121.75" y="-12.75" transform="rotate(-90 121.75,-12.75)" font-size=".6">LogMapC-2015</text>
	<text x="122.75" y="-11.75" font-size=".6">City</text>
	<text x="122.75" y="-10.75" font-size=".6">Contribution</text>
	<text x="122.75" y="-9.75" font-size=".6">Country</text>
	<text x="122.75" y="-8.75" font-size=".6">Event</text>
	<text x="122.75" y="-7.75" font-size=".6">Organization</text>
	<text x="122.75" y="-6.75" font-size=".6">Person</text>
	<text x="122.75" y="-5.75" font-size=".6">Topic</text>
	<circle cx="106.25" cy="-11.25" r="0.5" fill-opacity="0.0" style="stroke:rgb(0,0,0);stroke-width:0.1"/>	<circle cx="106.25" cy="-6.25" r="0.5" fill-opacity="0.0" style="stroke:rgb(0,0,0);stroke-width:0.1"/></svg>